<?xml version="1.0" encoding="UTF-8" standalone="no"?>
<!-- Generator: Adobe Illustrator 19.0.0, SVG Export Plug-In . SVG Version: 6.00 Build 0)  -->

<svg
   version="1.1"
   id="Layer_1"
   x="0px"
   y="0px"
   viewBox="0 0 285.938 285.938"
   style="enable-background:new 0 0 285.938 285.938;"
   xml:space="preserve"
   sodipodi:docname="code-2.svg"
   inkscape:version="1.1 (c4e8f9e, 2021-05-24)"
   xmlns:inkscape="http://www.inkscape.org/namespaces/inkscape"
   xmlns:sodipodi="http://sodipodi.sourceforge.net/DTD/sodipodi-0.dtd"
   xmlns="http://www.w3.org/2000/svg"
   xmlns:svg="http://www.w3.org/2000/svg"><defs
   id="defs10252">
		
		
		
		
		
		
		
		
		
		
		
		
		
		
	</defs><sodipodi:namedview
   id="namedview10250"
   pagecolor="#ffffff"
   bordercolor="#666666"
   borderopacity="1.0"
   inkscape:pageshadow="2"
   inkscape:pageopacity="0.0"
   inkscape:pagecheckerboard="0"
   showgrid="false"
   inkscape:zoom="2.2732202"
   inkscape:cx="144.50866"
   inkscape:cy="145.60842"
   inkscape:window-width="1440"
   inkscape:window-height="872"
   inkscape:window-x="0"
   inkscape:window-y="28"
   inkscape:window-maximized="0"
   inkscape:current-layer="g10217" />
<g
   id="g10217">
	<g
   id="g10584"
   transform="matrix(0.41846156,0,0,0.41846156,83.141963,83.141963)"><path
     style="fill:#333333"
     d="m 271.875,145.321 h -28.791 l -8.053,-52.359 c 5.189,3.445 11.409,5.456 18.094,5.456 18.094,0 32.813,-14.728 32.813,-32.817 0,-18.089 -14.719,-32.813 -32.813,-32.813 -18.094,0 -32.813,14.719 -32.813,32.813 0,3.802 0.684,7.439 1.88,10.838 L 204.258,61.083 C 200.611,57.961 195.966,56.26 191.17,56.26 h -64.608 c -7.753,0 -14.063,6.309 -14.063,14.063 0,7.754 6.309,14.063 14.063,14.063 h 58.036 l -48.783,38.311 c -8.859,6.961 -13.941,17.409 -13.941,28.678 0,12.469 6.263,23.934 16.758,30.684 l 43.5,27.961 -36.67,15.281 c -3.684,1.533 -6.581,4.561 -7.95,8.302 -1.369,3.75 -1.111,7.936 0.717,11.489 2.531,4.912 7.547,7.772 12.764,7.772 1.936,0 3.9,-0.394 5.77,-1.223 l 50.55,-22.313 c 7.894,-3.675 12.998,-11.686 12.998,-20.405 0,-5.934 -2.405,-11.738 -6.6,-15.923 l -28.73,-28.734 27.084,-23.705 2.091,16.72 c 1.148,9.211 9.009,16.167 18.286,16.167 h 39.431 c 7.753,0 14.063,-6.309 14.063,-14.063 0.002,-7.755 -6.307,-14.064 -14.061,-14.064 z M 253.125,42.158 c 12.923,0 23.438,10.514 23.438,23.438 0,12.924 -10.514,23.438 -23.438,23.438 -12.923,0 -23.438,-10.514 -23.438,-23.438 0,-12.924 10.515,-23.438 23.438,-23.438 z m 18.75,121.913 h -39.431 c -4.556,0 -8.419,-3.427 -8.986,-7.95 l -4.28,-34.228 -47.916,41.916 35.822,35.822 c 2.452,2.442 3.853,5.827 3.853,9.295 0,5.086 -2.981,9.764 -7.5,11.873 l -50.466,22.27 c -2.4,1.073 -5.213,0.07 -6.413,-2.259 -0.642,-1.252 -0.727,-2.658 -0.248,-3.98 0.483,-1.312 1.458,-2.334 2.752,-2.873 l 39.839,-16.598 c 2.611,-1.083 4.388,-3.506 4.636,-6.323 0.248,-2.817 -1.073,-5.517 -3.45,-7.041 L 143.7,174.172 c -7.795,-5.02 -12.45,-13.542 -12.45,-22.809 0,-8.372 3.778,-16.144 10.359,-21.319 l 57.628,-45.258 -9.797,-9.778 h -62.878 c -2.583,0 -4.688,-2.1 -4.688,-4.688 0,-2.588 2.105,-4.688 4.688,-4.688 h 64.608 c 2.559,0 5.039,0.9 6.984,2.564 l 27.164,23.297 9.722,63.202 h 36.834 c 2.583,0 4.688,2.1 4.688,4.688 0,2.588 -2.104,4.688 -4.687,4.688 z"
     id="path10187" /><path
     style="fill:#333333"
     d="m 68.991,241.4 c -2.353,2.677 -6.314,3.136 -9.206,1.073 -1.584,-1.13 -2.597,-2.817 -2.845,-4.744 -0.248,-1.931 0.3,-3.811 1.547,-5.306 l 62.306,-74.766 -7.2,-6.005 -62.311,74.77 c -2.892,3.469 -4.219,8.03 -3.642,12.511 0.577,4.481 3.019,8.555 6.698,11.18 2.869,2.044 6.173,3.037 9.459,3.037 4.538,0 9.033,-1.903 12.244,-5.569 l 54.047,-61.706 -7.055,-6.178 z"
     id="path10189" /><rect
     x="37.5"
     y="93.758003"
     style="fill:#333333"
     width="103.125"
     height="9.375"
     id="rect10191" /><rect
     x="9.375"
     y="93.758003"
     style="fill:#333333"
     width="18.75"
     height="9.375"
     id="rect10193" /><rect
     x="46.875"
     y="112.508"
     style="fill:#333333"
     width="70.313004"
     height="9.375"
     id="rect10195" /><rect
     x="18.75"
     y="112.508"
     style="fill:#333333"
     width="18.75"
     height="9.375"
     id="rect10197" /><rect
     x="51.563"
     y="131.258"
     style="fill:#333333"
     width="60.938"
     height="9.375"
     id="rect10199" /><rect
     x="28.125"
     y="131.258"
     style="fill:#333333"
     width="14.063"
     height="9.375"
     id="rect10201" /><rect
     x="28.125"
     y="75.008003"
     style="fill:#333333"
     width="79.688004"
     height="9.375"
     id="rect10203" /><rect
     y="75.008003"
     style="fill:#333333"
     width="18.75"
     height="9.375"
     id="rect10205"
     x="0" /><rect
     x="9.375"
     y="84.383003"
     style="fill:#007fff;fill-opacity:1"
     width="98.438004"
     height="9.375"
     id="rect10207" /><rect
     x="18.75"
     y="103.133"
     style="fill:#007fff;fill-opacity:1"
     width="121.875"
     height="9.375"
     id="rect10209" /><rect
     x="28.125"
     y="121.883"
     style="fill:#007fff;fill-opacity:1"
     width="89.063004"
     height="9.375"
     id="rect10211" /><rect
     x="37.5"
     y="140.633"
     style="fill:#007fff;fill-opacity:1"
     width="75"
     height="9.375"
     id="rect10213" /></g>
</g>
<g
   id="g10219">
</g>
<g
   id="g10221">
</g>
<g
   id="g10223">
</g>
<g
   id="g10225">
</g>
<g
   id="g10227">
</g>
<g
   id="g10229">
</g>
<g
   id="g10231">
</g>
<g
   id="g10233">
</g>
<g
   id="g10235">
</g>
<g
   id="g10237">
</g>
<g
   id="g10239">
</g>
<g
   id="g10241">
</g>
<g
   id="g10243">
</g>
<g
   id="g10245">
</g>
<g
   id="g10247">
</g>
</svg>
